<?xml version="1.0" encoding="UTF-8" standalone="no"?>
<svg width="212px" height="42px" viewBox="0 0 212 42" version="1.1" xmlns="http://www.w3.org/2000/svg" xmlns:xlink="http://www.w3.org/1999/xlink">
    <!-- Generator: Sketch 40.3 (33839) - http://www.bohemiancoding.com/sketch -->
    <title>Artboard</title>
    <desc>Created with Sketch.</desc>
    <defs></defs>
    <g id="Page-1" stroke="none" stroke-width="1" fill="none" fill-rule="evenodd">
        <g id="Artboard" fill="#FFFFFF">
            <g id="grayarea" transform="translate(0.000000, 1.000000)">
                <g id="Group">
                    <g id="Shape">
                        <polygon points="13.2 0 13.2 36.5 34.3 0"></polygon>
                        <polygon points="14.8 37.5 46.4 19.2 35.9 0.9"></polygon>
                        <polygon points="11.3 1.6 0.7 20 11.3 38.4"></polygon>
                        <polygon points="58.4 40 47.3 20.8 14.1 40 35.3 40 35.3 40"></polygon>
                    </g>
                    <g transform="translate(64.000000, 11.000000)" id="Shape">
                        <path d="M6.9,18 C4.9,18 3.4,17.3 2.1,15.8 C0.9,14.3 0.2,12 0.2,8.9 C0.2,6.1 0.9,4 2.2,2.4 C3.5,0.9 5.1,0.1 6.9,0.1 C8.4,0.1 9.7,0.6 10.8,1.7 C11.8,2.7 12.5,4.1 12.8,5.8 L10.8,6.1 C10.6,4.9 10.2,3.9 9.6,3.1 C9,2.3 7.9,2 6.8,2 C5.4,2 4.4,2.6 3.6,3.7 C2.8,4.9 2.4,6.6 2.4,8.9 C2.4,11.3 2.8,13.1 3.6,14.3 C4.4,15.5 5.5,16.2 6.8,16.2 C8,16.2 9,15.7 9.7,14.8 C10.4,13.9 10.8,12.6 10.7,11.1 L6.3,11.1 L6.3,9.2 L12.7,9.2 L12.7,11 C12.7,13.2 12.2,15 11,16.2 C10.1,17.4 8.6,18 6.9,18 L6.9,18 Z"></path>
                        <path d="M17.7,17.6 L17.7,0.4 L23.1,0.4 C24.9,0.4 26.3,0.9 27.3,1.7 C28.3,2.5 28.8,3.9 28.8,5.5 C28.8,6.9 28.4,8 27.6,8.9 C26.8,9.7 25.8,10.3 24.5,10.5 L28.4,17.7 L26.1,17.7 L22.4,10.6 L19.7,10.6 L19.7,17.7 C19.8,17.6 17.7,17.6 17.7,17.6 L17.7,17.6 Z M19.8,8.8 L23,8.8 C24.2,8.8 25.1,8.6 25.8,8 C26.5,7.5 26.8,6.6 26.8,5.5 C26.8,3.3 25.5,2.3 22.9,2.3 L19.7,2.3 L19.8,8.8 L19.8,8.8 L19.8,8.8 Z"></path>
                        <path d="M44.1,17.6 L42.9,14.2 L35.8,14.2 L34.8,17.6 L32.6,17.6 L38.3,0.3 L40.5,0.3 L46.2,17.6 L44.1,17.6 L44.1,17.6 Z M42.3,12.5 L39.4,3.1 L39.4,3.1 L36.4,12.5 L42.3,12.5 L42.3,12.5 Z"></path>
                        <polygon points="53.4 17.6 53.4 10.3 47.7 0.3 50 0.3 54.4 8.3 54.4 8.3 58.8 0.3 61.1 0.3 55.4 10.3 55.4 17.6 53.4 17.6"></polygon>
                        <path d="M85.2,17.6 L84,14.2 L76.9,14.2 L75.9,17.6 L73.7,17.6 L79.4,0.3 L81.6,0.3 L87.3,17.6 C87.3,17.6 85.2,17.6 85.2,17.6 L85.2,17.6 Z M83.4,12.5 L80.5,3.1 L80.5,3.1 L77.5,12.5 L83.4,12.5 L83.4,12.5 Z"></path>
                        <path d="M91.9,17.6 L91.9,0.4 L97.3,0.4 C99.1,0.4 100.5,0.9 101.5,1.7 C102.5,2.5 103,3.9 103,5.5 C103,6.9 102.6,8 101.8,8.9 C101,9.7 100,10.3 98.7,10.5 L102.6,17.7 L100.3,17.7 L96.6,10.6 L94,10.6 L94,17.7 C94,17.6 91.9,17.6 91.9,17.6 L91.9,17.6 Z M94,8.8 L97.2,8.8 C98.4,8.8 99.3,8.6 100,8 C100.7,7.5 101,6.6 101,5.5 C101,3.3 99.7,2.3 97.1,2.3 L94,2.3 C94,2.2 94,8.8 94,8.8 L94,8.8 Z"></path>
                        <path d="M108.3,17.6 L108.3,0.4 L118.5,0.4 L118.5,2.3 L110.4,2.3 L110.4,7.9 L117.8,7.9 L117.8,9.8 L110.4,9.8 L110.4,15.9 L118.5,15.9 L118.5,17.8 C118.5,17.6 108.3,17.6 108.3,17.6 L108.3,17.6 Z"></path>
                        <path d="M133.2,17.6 L132,14.2 L125,14.2 L124,17.6 L121.8,17.6 L127.5,0.3 L129.7,0.3 L135.4,17.6 C135.4,17.6 133.2,17.6 133.2,17.6 L133.2,17.6 Z M131.5,12.5 L128.6,3.1 L128.6,3.1 L125.6,12.5 L131.5,12.5 L131.5,12.5 Z"></path>
                    </g>
                </g>
            </g>
        </g>
    </g>
</svg>